<svg width="374" height="407" viewBox="0 0 374 407" fill="white" xmlns="http://www.w3.org/2000/svg">
<path d="M175.169 0.470797C261.032 -6.16213 336.014 58.0708 342.638 143.934C349.266 229.798 285.025 304.772 199.159 311.392C113.307 318.008 38.3434 253.779 31.7188 167.926C25.0941 82.0728 89.3172 7.10333 175.169 0.470797ZM136.938 293.002C137.065 283.368 138.007 275.649 137.758 265.545C130.937 255.482 108.26 242.73 100.334 232.619C93.299 223.643 87.2146 208.122 81.7583 197.809C80.35 194.704 78.8203 185.022 78.3908 181.422C77.4336 173.411 68.2387 147.652 85.4453 153.596C93.1028 148.471 99.7101 151.974 104.074 159.466C110.012 169.658 112.97 181.566 118.545 192.038C118.446 188.796 118.273 183.776 120.814 181.593C127.419 176.475 133.533 179.486 138.737 184.537C143.833 189.482 146.942 198.369 151.516 202.672C158.6 209.339 165.634 213.39 172.353 220.975C186.002 236.382 184.532 251.62 184.54 270.739L184.489 301.332C186.23 301.206 188.016 301.1 189.753 300.946L189.777 292.62L189.737 266.014C189.773 246.927 190.293 232.647 204.924 218.028C210.578 212.377 215.788 209.71 222.739 203.239C230.426 196.084 239.135 169.728 254.64 181.973C256.882 183.743 256.689 187.563 256.681 190.285C262.683 187.464 268.704 140.602 289.155 153.043C289.549 153.284 301.303 150.466 299.561 161.092C297.071 172.585 295.995 191.245 291.042 201.565C287.011 209.962 279.859 224.821 274.445 232.06C266.674 242.443 243.8 255.198 236.723 265.565C236.093 274.869 237.421 283.695 237.645 292.947C247.851 288.774 255.082 285.795 264.637 280.204C290.589 264.895 310.961 241.682 322.766 213.961C338.307 177.617 338.583 136.55 323.531 99.999C308.821 64.1643 280.553 36.2408 244.781 21.8862C220.993 12.3402 200.696 10.2285 175.46 11.3164C91.5451 18.6452 32.9517 86.7 40.5209 171.167C44.0944 208.445 62.1597 242.829 90.8291 266.921C100.281 274.64 110.623 281.201 121.634 286.465C126.635 288.814 131.888 290.792 136.938 293.002ZM282.31 156.487C272.128 160.529 270.761 178.35 266.458 186.862C260.531 198.578 249.435 213.78 239.312 222.209C239.529 220.321 239.671 218.568 240.4 216.802C242.815 210.935 255.976 192.729 251.252 186.609C250.361 185.453 249.017 184.731 247.563 184.623C245.79 184.48 243.78 185.546 242.618 186.774C237.184 192.515 233.295 200.781 228.295 206.786C224.926 210.829 218.818 215.203 214.751 218.765C202.233 229.719 197.555 240.768 197.315 257.089C197.098 271.59 197.614 286.583 197.248 300.907C205.61 299.969 221.994 297.755 230.009 294.977C229.634 290.307 229.599 286.473 229.575 281.792C229.225 275.483 227.589 264.253 232.704 259.584C243.918 249.35 256.5 240.461 267.644 230.086C271.872 226.149 275.06 217.728 277.956 212.7C280.817 207.732 283.859 202.546 286.042 197.258C287.429 192.081 296.07 159.732 293.564 157.078C289.631 157.076 288.784 163.426 287.941 166.247C284.777 176.807 284.229 191.067 278.425 200.473C275.962 204.461 267.384 221.432 264.168 222.425C258.147 220.676 273.621 198.412 274.981 194.405C277.755 186.21 279.292 177.742 281.518 169.37C282.014 167.493 284.879 158.627 284.489 157.544C283.504 156.755 283.543 156.822 282.31 156.487ZM144.42 295.114C153.56 297.254 167.654 300.477 177.108 300.533L177.056 270.396C177.068 251.719 178.275 235.941 163.358 221.878C159.094 217.843 152.671 212.562 148.43 208.795C143.593 204.5 134.202 183.944 128.219 184.652C112.042 186.568 138.423 216.629 135.05 221.149C134.203 220.975 121.521 207.27 120.426 205.56C116.977 200.178 112.184 194.207 109.233 188.6C104.867 180.307 102.451 157.42 90.8611 156.935L90.3803 156.913C90.5986 160.487 93.803 170.642 94.7589 174.786C96.1306 180.73 97.6055 187.679 99.2995 193.547C100.816 198.799 114.772 217.125 111.524 222.075C110.195 222.626 110.882 222.544 109.379 222.177C106.28 219.71 94.9221 198.101 92.8328 193.304C90.1557 187.157 88.4633 160.238 81.9604 157.699L80.9599 157.813C80.2633 158.773 80.1896 159.277 80.4745 160.563C83.1879 172.819 84.8452 186.338 88.7123 198.223C90.4095 203.44 95.7834 209.745 97.8002 215.112C99.9213 218.635 103.018 226.835 105.817 229.404C112.634 235.673 121.007 242.786 128.271 248.349C146.174 262.07 146.399 262.961 144.64 285.185L144.42 295.114Z" fill="white"/>
<path d="M178.85 107.491C181.324 107.226 186.66 107.299 189.264 107.284C216.615 107.135 242.696 116.903 265.606 131.327C268.806 133.378 272.135 135.187 275.229 137.407C278.515 139.708 279.449 142.198 276.403 145.358C254.876 167.7 226.316 184.152 195.002 186.348C169.485 188.936 140.44 178.851 119.885 163.804C115.034 160.252 97.2497 146.76 96.1152 142.052C96.7418 137.868 106.382 133.051 110.004 130.866C131.474 117.913 153.589 109.131 178.85 107.491ZM191.9 170.936C206.169 168.484 215.697 154.86 213.108 140.615C210.515 126.369 196.798 116.974 182.581 119.704C168.555 122.397 159.317 135.884 161.872 149.934C164.428 163.985 177.825 173.354 191.9 170.936ZM237.377 165.204C249.088 158.586 258.123 152.262 267.868 142.839C252.291 132.848 237.471 125.111 219.464 120.327C216.757 119.608 211.433 118.235 208.73 118.324C215.961 123.92 220.61 131.713 221.8 140.822C222.939 149.996 220.358 159.243 214.629 166.499C211.011 171.135 206.378 174.142 201.326 176.97C213.529 174.642 226.371 171.186 237.377 165.204ZM106.681 142.969C119.101 153.945 124.464 157.617 138.675 165.782C151.469 171.869 160.207 174.497 174.059 177.339C168.152 174.046 165.023 172.082 160.572 166.967C148.409 152.989 150.947 129.74 165.557 118.349L165.424 118L164.962 118.025C148.689 121.961 137.373 125.517 122.587 133.675C118.485 135.939 110.094 141.342 106.681 142.969Z" fill="white"/>
<path d="M188.437 72.0373C190.297 71.6996 195.349 71.9864 197.343 72.0972C211.485 72.8809 225.249 75.7921 238.386 81.1172C251.023 86.2386 263.329 93.3239 274.279 101.443C276.695 103.373 281.333 105.572 282.397 108.64C283.307 111.271 280.434 114.084 277.605 112.961C272.983 111.125 268.735 107.805 264.444 105.173C261.193 103.21 257.879 101.357 254.506 99.6164C231.478 87.6772 211.106 83.2167 185.352 84.0891C164.851 83.6951 136.287 95.4848 118.087 104.102C111.323 107.305 104.383 111.362 97.2001 113.454C93.2923 114.592 90.071 110.228 93.7116 107.082C123.575 85.8398 151.905 73.8207 188.437 72.0373Z" fill="white"/>
<path d="M276.51 346.6C282.909 346.182 290.699 347.018 296.776 346.454C321.033 344.196 333.682 369.931 309.972 383.51C312.143 385.981 323.791 402.117 324.485 404.773L323.976 405.293C321.32 405.837 317.061 405.644 314.22 405.624C313.822 405.62 311.899 405.584 311.737 405.502C307.423 403.256 299.581 389.145 297.272 385.189C294.596 385.193 291.921 385.181 289.245 385.157C289.446 391.028 289.671 399.847 289.174 405.557C284.757 405.64 280.34 405.636 275.923 405.549C275.135 397.345 275.809 385.555 275.651 377.205C275.564 372.725 275.139 349.079 276.51 346.6ZM289.462 374.577C295.136 374.491 302.237 375.539 306.469 372.095C312.013 364.632 307.982 358.548 299.175 358.287C295.928 358.193 292.622 358.295 289.367 358.295L289.462 374.577Z" fill="white"/>
<path d="M112.82 345.859C122.769 344.815 130.698 347.9 138.01 354.434C136.189 357.874 133.36 360.742 130.717 363.579C124.307 359.076 118.078 356.14 110.032 358.674C105.924 359.974 102.517 362.882 100.593 366.736C98.1863 371.448 97.7355 377.698 99.4712 382.683C103.792 395.099 115.313 396.51 126.137 392.624C126.379 390.162 126.338 386.008 126.395 383.423C122.533 383.463 118.67 383.408 114.811 383.258C114.544 379.562 114.602 376.926 114.732 373.206L122.107 373.178C127.613 373.1 133.119 373.096 138.625 373.167C138.817 381.237 138.695 390.461 138.558 398.551C126.727 407.874 108.471 409.828 96.1175 400.434C89.7959 395.54 85.6848 388.325 84.6938 380.393C82.3922 361.42 94.3057 348.129 112.82 345.859Z" fill="white"/>
<path d="M235.73 346.502C239.88 346.466 243.879 346.395 248.025 346.643C250.523 350.328 258.687 372.39 260.579 377.572C263.573 385.76 268.661 397.463 271.372 405.557C266.71 405.628 262.049 405.647 257.387 405.62C255.433 401.494 254.254 397.841 253.068 393.46L247.906 393.424L230.289 393.412C228.969 397.424 227.404 401.549 225.97 405.533C223.18 405.604 214.822 406.12 212.659 405.135C212.781 401.4 233.409 349.713 235.73 346.502ZM233.847 382.663L241.164 382.466L249.345 382.734C248.285 379.995 242.122 362.22 241.594 361.735C239.143 368.757 236.558 375.736 233.847 382.663Z" fill="white"/>
<path d="M331.798 346.553C335.951 346.312 342.09 346.49 346.378 346.49C355.113 346.458 363.845 346.482 372.581 346.565C372.774 350.474 372.719 354.394 372.42 358.295L344.561 358.366L344.608 370.404C352.501 370.298 360.394 370.27 368.286 370.325C368.31 374.029 368.271 377.737 368.168 381.437C363.605 381.41 348.746 381.016 344.868 381.583L344.565 382.273L344.679 393.799C352.592 393.267 364.89 393.629 372.94 393.795C373.188 398.007 373.062 401.423 372.893 405.6L345.649 405.636C343.296 405.64 332.665 406.262 331.53 404.824C330.868 401.577 330.817 399.028 330.836 395.722C330.919 380.181 330.628 364.6 331.033 349.067C331.053 348.259 331.479 347.278 331.798 346.553Z" fill="white"/>
<path d="M44.0816 346.502C48.8101 346.462 53.0701 346.435 57.799 346.663C56.8513 350.418 54.0875 357.05 52.591 360.888C46.6251 374.561 40.6026 391.438 34.889 405.616C30.7365 405.651 26.5841 405.624 22.4325 405.541C22.1681 404.966 21.9115 404.383 21.6633 403.799C15.9591 390.445 5.35426 362.681 0 347.668C0.153677 347.282 0.307756 346.9 0.461432 346.517C4.98386 346.49 9.50591 346.502 14.0279 346.553C15.5249 349.059 18.243 357.393 19.3593 360.553L29.065 388.12C32.639 378.841 35.6782 367.973 39.4413 358.555C41.0494 354.532 42.1122 350.466 44.0816 346.502Z" fill="white"/>
<path d="M172.628 346.517C176.965 346.403 181.305 346.45 185.639 346.663C186.049 351.309 185.828 358.638 185.813 363.489L185.742 393.751C193 393.338 202.713 393.436 209.987 393.783C210.07 397.771 209.664 401.494 208.974 405.419C206.685 405.766 197.756 405.659 194.923 405.62C187.7 405.517 179.256 405.978 172.162 405.486C171.753 400.769 172.117 384.629 172.099 379.282C172.079 373.356 171.686 351.218 172.628 346.517Z" fill="white"/>
<path d="M148.751 346.533C153.164 346.47 157.018 346.458 161.438 346.636C161.902 353.118 162.003 403.776 160.934 405.687C158.254 405.632 150.226 406.183 148.491 405.151C147.667 401.266 147.848 394.662 147.842 390.548L147.854 369.533C147.86 365.794 147.396 349.165 148.751 346.533Z" fill="white"/>
<path d="M63.7195 346.478C67.9965 346.439 72.2738 346.466 76.5499 346.565C77.0058 352.01 76.8947 404.288 76.2004 405.372L75.2165 405.549C72.1575 405.647 66.2579 406.172 63.712 404.958C62.6036 402.487 63.0248 349.26 63.7195 346.478Z" fill="white"/>
</svg>
